<svg xmlns="http://www.w3.org/2000/svg" width="164" height="83" viewBox="0 0 164 83" fill="#0D0F85">
    <path d="M157.759 23.307L154.678 32.107L151.304 23.307H144.989L151.436 38.97L151.419 39.004C150.734 40.372 149.594 40.482 148.173 40.482C147.728 40.4852 147.284 40.4362 146.85 40.336L146.572 40.257V45.373L146.721 45.423C147.501 45.6441 148.311 45.7413 149.121 45.711C152.953 45.711 155.913 43.358 157.681 38.911L163.914 23.311L157.759 23.307Z" />
    <path d="M75.9481 31.987H82.5781V39.413H88.8531V19.513H82.5781V26.938H75.9481V19.513H69.6741V39.413H75.9481V31.987Z" />
    <path d="M126.859 31.36C126.859 26.437 123.675 22.999 119.114 22.999C117.705 22.9728 116.333 23.4521 115.246 24.35V23.307H109.279V43.202H115.246V38.402C116.334 39.2936 117.708 39.7623 119.114 39.722C123.675 39.722 126.859 36.284 126.859 31.362V31.36ZM117.885 27.985C119.62 27.985 120.831 29.373 120.831 31.362C120.831 33.351 119.62 34.738 117.885 34.738C116.15 34.738 114.938 33.349 114.938 31.362C114.938 29.375 116.15 27.985 117.885 27.985Z" />
    <path d="M138.182 22.999C136.772 22.9724 135.399 23.4516 134.312 24.35V23.307H128.347V43.202H134.312V38.402C135.401 39.2941 136.775 39.7628 138.182 39.722C142.742 39.722 145.927 36.284 145.927 31.362C145.927 26.44 142.742 23.001 138.182 23.001V22.999ZM136.952 27.985C138.687 27.985 139.898 29.373 139.898 31.362C139.898 33.351 138.687 34.738 136.952 34.738C135.217 34.738 134.006 33.349 134.006 31.362C134.006 29.375 135.218 27.985 136.952 27.985Z" />
    <path d="M97.773 39.704C99.1796 39.7445 100.553 39.2758 101.642 38.384V39.395H107.608V23.295H101.642V24.336C100.555 23.4387 99.1824 22.9598 97.773 22.986C93.213 22.986 90.027 26.423 90.027 31.346C90.027 36.269 93.213 39.706 97.773 39.706V39.704ZM99.002 34.722C97.268 34.722 96.056 33.333 96.056 31.346C96.056 29.359 97.268 27.969 99.002 27.969C100.736 27.969 101.948 29.358 101.948 31.346C101.948 33.334 100.737 34.722 99.002 34.722Z" />
    <path d="M96.998 52.343C95.3334 52.431 93.7312 53.005 92.3895 53.9941C91.0477 54.9832 90.0254 56.3439 89.449 57.908C88.8725 59.472 88.7672 61.1707 89.1461 62.794C89.525 64.4172 90.3715 65.8937 91.5808 67.0409C92.7901 68.1881 94.3092 68.9557 95.9502 69.2485C97.5911 69.5414 99.2819 69.3468 100.813 68.6887C102.345 68.0307 103.65 66.9381 104.567 65.5461C105.484 64.1541 105.973 62.5239 105.973 60.857C105.954 59.7051 105.706 58.5685 105.243 57.5138C104.779 56.459 104.11 55.5073 103.274 54.7145C102.438 53.9216 101.453 53.3034 100.375 52.8962C99.2974 52.489 98.1493 52.301 96.998 52.343ZM99.944 60.857C99.944 62.895 98.76 64.264 96.998 64.264C95.236 64.264 94.052 62.895 94.052 60.857C94.052 58.819 95.235 57.45 96.998 57.45C98.761 57.45 99.944 58.819 99.944 60.857Z" />
    <path d="M113.218 52.803H107.25V68.919H113.218V52.803Z" />
    <path d="M110.233 44.969C109.779 44.9642 109.33 45.0499 108.91 45.2212C108.49 45.3926 108.108 45.646 107.787 45.9666C107.467 46.2873 107.213 46.6688 107.042 47.0887C106.87 47.5086 106.784 47.9585 106.789 48.412C106.789 49.0935 106.99 49.7598 107.369 50.3266C107.747 50.8934 108.285 51.3353 108.915 51.5963C109.544 51.8573 110.237 51.9258 110.905 51.793C111.574 51.6602 112.188 51.3321 112.67 50.8503C113.152 50.3685 113.48 49.7546 113.613 49.0862C113.746 48.4178 113.678 47.725 113.417 47.0954C113.156 46.4658 112.714 45.9277 112.147 45.5492C111.581 45.1707 110.914 44.9688 110.233 44.969" />
    <path d="M125.199 52.496C124.403 52.4811 123.616 52.6713 122.914 53.0482C122.212 53.425 121.619 53.9759 121.192 54.648L121.28 52.804H115.304V68.909H121.269V59.782C121.269 58.282 122.026 57.388 123.295 57.388C124.64 57.388 125.442 58.328 125.442 59.904V68.909H131.409V59.075C131.409 55.201 128.855 52.496 125.199 52.496Z" />
    <path d="M140.402 49.058H134.496V52.81H132.038V57.548H134.496V62.667C134.496 66.649 136.888 69.122 140.736 69.122C141.531 69.1263 142.325 69.0533 143.106 68.904L143.29 68.874V63.798L143.041 63.833C142.705 63.877 142.366 63.8971 142.027 63.893C141.806 63.9113 141.584 63.8808 141.377 63.8036C141.169 63.7264 140.981 63.6045 140.826 63.4464C140.671 63.2883 140.552 63.098 140.479 62.889C140.406 62.6799 140.38 62.4574 140.402 62.237V57.548H143.475V52.81H140.402V49.058Z" />
    <path d="M79.1091 49.014H69.6741V68.914H75.9471V64.203H79.1081C83.7871 64.203 87.3151 60.939 87.3151 56.611C87.3151 52.283 83.7871 49.019 79.1081 49.019L79.1091 49.014ZM75.9471 54.064H78.4941C79.1572 54.0826 79.787 54.3591 80.2495 54.8347C80.712 55.3103 80.9707 55.9476 80.9707 56.611C80.9707 57.2744 80.712 57.9117 80.2495 58.3873C79.787 58.8629 79.1572 59.1394 78.4941 59.158H75.9471V54.064Z" />
    <path d="M2.42603 11.101C4.49629 15.6825 7.84417 19.5696 12.0682 22.2961C16.2922 25.0226 21.213 26.4728 26.2405 26.4728C31.2681 26.4728 36.1889 25.0226 40.4129 22.2961C44.6369 19.5696 47.9848 15.6825 50.055 11.101H2.42603Z" />
    <path d="M33.92 0C33.92 2.07108 33.0973 4.05733 31.6328 5.5218C30.1683 6.98628 28.1821 7.80901 26.111 7.80901C24.0399 7.80901 22.0537 6.98628 20.5892 5.5218C19.1247 4.05733 18.302 2.07108 18.302 0H33.92Z" />
    <path d="M26.254 29.636C21.0613 29.6362 15.9853 31.1762 11.6678 34.0612C7.3503 36.9463 3.98529 41.0469 1.99827 45.8443C0.0112429 50.6418 -0.508552 55.9208 0.504616 61.0137C1.51778 66.1066 4.0184 70.7847 7.69027 74.4564C11.3621 78.1282 16.0403 80.6286 21.1333 81.6416C26.2262 82.6546 31.5052 82.1346 36.3026 80.1474C41.1 78.1601 45.2004 74.795 48.0853 70.4774C50.9702 66.1598 52.51 61.0837 52.51 55.891C52.51 52.4431 51.8309 49.0289 50.5114 45.8434C49.1919 42.6579 47.2578 39.7636 44.8197 37.3256C42.3816 34.8875 39.4872 32.9536 36.3017 31.6343C33.1162 30.3149 29.7019 29.6359 26.254 29.636V29.636ZM26.254 61.297C25.1846 61.297 24.1391 60.9799 23.2499 60.3857C22.3607 59.7915 21.6677 58.947 21.2585 57.9589C20.8493 56.9709 20.7423 55.8837 20.951 54.8348C21.1597 53.7859 21.6748 52.8225 22.431 52.0663C23.1873 51.3102 24.1508 50.7953 25.1998 50.5868C26.2487 50.3783 27.3359 50.4855 28.3239 50.8949C29.3119 51.3043 30.1562 51.9975 30.7503 52.8868C31.3443 53.7761 31.6612 54.8216 31.661 55.891C31.661 56.601 31.5211 57.3041 31.2494 57.96C30.9777 58.616 30.5794 59.212 30.0773 59.714C29.5752 60.216 28.9791 60.6142 28.3231 60.8858C27.6671 61.1574 26.964 61.2971 26.254 61.297Z" />
</svg>