<svg xmlns="http://www.w3.org/2000/svg" width="42" height="66" viewBox="0 0 42 66" fill="#0D0F85">
    <path d="M1.94006 8.875C3.59506 12.5382 6.27163 15.6462 9.6488 17.8263C13.026 20.0063 16.9603 21.1659 20.98 21.1659C24.9997 21.1659 28.9341 20.0063 32.3113 17.8263C35.6885 15.6462 38.365 12.5382 40.02 8.875H1.94006Z" />
    <path d="M27.121 0C27.121 1.65601 26.4632 3.2442 25.2922 4.41518C24.1213 5.58615 22.533 6.244 20.877 6.244C19.221 6.244 17.6328 5.58615 16.4619 4.41518C15.2909 3.2442 14.6331 1.65601 14.6331 0H27.121Z" />
    <path d="M20.992 23.693C16.8402 23.693 12.7816 24.9242 9.32951 27.2308C5.87739 29.5374 3.18678 32.8159 1.59794 36.6517C0.0091064 40.4875 -0.40662 44.7083 0.403361 48.7803C1.21334 52.8524 3.21263 56.5928 6.14842 59.5286C9.0842 62.4644 12.8247 64.4637 16.8967 65.2737C20.9688 66.0836 25.1895 65.6679 29.0253 64.0791C32.8611 62.4903 36.1396 59.7997 38.4462 56.3475C40.7528 52.8954 41.984 48.8368 41.984 44.685C41.9841 41.9283 41.4413 39.1985 40.3864 36.6516C39.3315 34.1046 37.7852 31.7904 35.8359 29.8411C33.8866 27.8918 31.5724 26.3455 29.0255 25.2906C26.4786 24.2357 23.7488 23.6929 20.992 23.693V23.693ZM20.992 49.007C20.137 49.0072 19.301 48.7538 18.5899 48.2789C17.8788 47.8039 17.3246 47.1288 16.9973 46.3388C16.67 45.5488 16.5842 44.6795 16.751 43.8409C16.9178 43.0022 17.3295 42.2318 17.9342 41.6272C18.5388 41.0225 19.3092 40.6108 20.1479 40.444C20.9865 40.2772 21.8558 40.3629 22.6458 40.6903C23.4358 41.0176 24.1109 41.5718 24.5859 42.2829C25.0608 42.994 25.3142 43.8299 25.314 44.685C25.314 45.8313 24.8587 46.9306 24.0481 47.7411C23.2376 48.5517 22.1383 49.007 20.992 49.007" />
</svg>