<svg xmlns="http://www.w3.org/2000/svg" width="101" height="127" viewBox="0 0 101 127" fill="#0D0F85">
    <path d="M94.483 76.882L91.1381 86.439L87.475 76.882H80.832L87.7241 93.63L87.694 93.69C86.944 95.19 85.703 95.308 84.158 95.308C83.6751 95.3117 83.1935 95.2587 82.723 95.15L82.501 95.087V100.45L82.6201 100.49C83.4517 100.726 84.3152 100.829 85.179 100.796C89.264 100.796 92.42 98.284 94.307 93.533L100.962 76.878L94.483 76.882Z" />
    <path d="M13.844 94.042H20.455V72.815H13.844V80.782H6.612V72.815H0V94.042H6.612V86.075H13.844V94.042Z" />
    <path d="M52.983 76.55C51.4405 76.52 49.9413 77.0606 48.7729 78.068V76.879H42.491V98.105H48.7729V92.882C49.942 93.8849 51.4434 94.4152 52.983 94.369C57.84 94.369 61.233 90.705 61.233 85.459C61.233 80.213 57.843 76.55 52.983 76.55ZM54.883 85.459C54.883 87.627 53.559 89.142 51.663 89.142C49.767 89.142 48.442 87.627 48.442 85.459C48.442 83.291 49.766 81.776 51.663 81.776C53.56 81.776 54.883 83.291 54.883 85.459Z" />
    <path d="M69.229 92.885C70.3981 93.8877 71.8995 94.418 73.439 94.372C78.296 94.372 81.689 90.708 81.689 85.462C81.689 80.216 78.296 76.553 73.439 76.553C71.8964 76.523 70.3971 77.0639 69.229 78.072V76.882H62.947V98.108H69.229V92.885ZM72.1201 81.779C74.0201 81.779 75.34 83.294 75.34 85.462C75.34 87.63 74.0171 89.145 72.1201 89.145C70.2231 89.145 68.899 87.63 68.899 85.462C68.899 83.294 70.2241 81.779 72.1201 81.779Z" />
    <path d="M34.296 94.023H40.5829V76.865H34.3V78.055C33.1318 77.047 31.6326 76.5058 30.09 76.535C25.233 76.535 21.84 80.199 21.84 85.444C21.84 90.689 25.233 94.355 30.09 94.355C31.6296 94.4014 33.131 93.8711 34.3 92.868L34.296 94.023ZM31.405 89.123C29.505 89.123 28.184 87.608 28.184 85.44C28.184 83.272 29.509 81.759 31.405 81.759C33.301 81.759 34.626 83.273 34.626 85.44C34.626 87.607 33.301 89.123 31.405 89.123Z" />
    <path d="M40.2279 108.034C34.8629 108.034 30.6589 112.02 30.6589 117.107C30.7891 119.557 31.854 121.863 33.6342 123.551C35.4143 125.24 37.7741 126.181 40.2274 126.181C42.6807 126.181 45.0405 125.24 46.8207 123.551C48.6008 121.863 49.6657 119.557 49.7959 117.107C49.7959 112.02 45.5959 108.034 40.2279 108.034V108.034ZM43.4489 117.107C43.4489 119.33 42.1539 120.824 40.2279 120.824C38.3019 120.824 37.0069 119.33 37.0069 117.107C37.0069 114.884 38.3019 113.393 40.2279 113.393C42.1539 113.393 43.4489 114.887 43.4489 117.107Z" />
    <path d="M54.4279 100.122C53.9492 100.117 53.4743 100.208 53.0311 100.389C52.5879 100.57 52.1853 100.838 51.8468 101.177C51.5083 101.515 51.2408 101.918 51.0598 102.361C50.8789 102.804 50.7881 103.279 50.7929 103.758C50.7931 104.477 51.0065 105.18 51.406 105.777C51.8055 106.375 52.3733 106.841 53.0375 107.116C53.7018 107.391 54.4326 107.462 55.1377 107.322C55.8427 107.182 56.4903 106.835 56.9986 106.327C57.5069 105.819 57.853 105.171 57.9932 104.466C58.1333 103.761 58.0613 103.03 57.7861 102.366C57.511 101.702 57.0451 101.134 56.4473 100.735C55.8496 100.335 55.1468 100.122 54.4279 100.122Z" />
    <path d="M57.569 108.528H51.287V125.699H57.569V108.528Z" />
    <path d="M70.483 108.198C69.6 108.182 68.729 108.403 67.9605 108.838C67.1921 109.273 66.5544 109.907 66.114 110.672L66.214 108.528H59.924V125.688H66.206V115.95C66.206 114.304 67.04 113.323 68.437 113.323C69.917 113.323 70.8 114.354 70.8 116.083V125.683H77.0829V115.197C77.0829 111.075 74.369 108.197 70.483 108.197" />
    <path d="M86.735 104.51H80.518V108.535H77.8831V113.5H80.5211V119.05C80.5211 123.284 83.064 125.915 87.156 125.915C88.0059 125.92 88.8542 125.843 89.689 125.683L89.837 125.659V120.333L89.637 120.36C89.2724 120.408 88.9048 120.43 88.537 120.425C88.2925 120.445 88.0466 120.411 87.8167 120.325C87.5868 120.239 87.3787 120.104 87.2069 119.929C87.0351 119.754 86.904 119.543 86.8228 119.311C86.7416 119.08 86.7124 118.833 86.7371 118.589V113.499H90.037V108.534H86.7371L86.735 104.51Z" />
    <path d="M21.0369 104.462H10.9719V125.688H17.5829V120.633H21.0349C26.0199 120.633 29.7789 117.158 29.7789 112.548C29.7789 107.938 26.0199 104.462 21.0349 104.462H21.0369ZM17.5829 109.755H20.3749C21.1064 109.769 21.8032 110.069 22.3156 110.591C22.828 111.114 23.1151 111.816 23.1151 112.547C23.1151 113.279 22.828 113.981 22.3156 114.504C21.8032 115.026 21.1064 115.326 20.3749 115.34H17.5829V109.755Z" />
    <path d="M31.396 8.875C33.051 12.5382 35.7276 15.6462 39.1047 17.8263C42.4819 20.0063 46.4163 21.1659 50.436 21.1659C54.4557 21.1659 58.39 20.0063 61.7672 17.8263C65.1444 15.6462 67.821 12.5382 69.476 8.875H31.396Z" />
    <path d="M56.577 0C56.577 1.65601 55.9191 3.2442 54.7482 4.41518C53.5772 5.58615 51.989 6.244 50.3329 6.244C48.6769 6.244 47.0888 5.58615 45.9178 4.41518C44.7468 3.2442 44.089 1.65601 44.089 0H56.577Z" />
    <path d="M50.448 23.693C46.2962 23.693 42.2376 24.9242 38.7854 27.2308C35.3333 29.5374 32.6427 32.8159 31.0539 36.6517C29.465 40.4875 29.0493 44.7083 29.8593 48.7803C30.6693 52.8524 32.6686 56.5928 35.6043 59.5286C38.5401 62.4644 42.2806 64.4637 46.3526 65.2737C50.4247 66.0836 54.6455 65.6679 58.4812 64.0791C62.317 62.4903 65.5955 59.7997 67.9021 56.3475C70.2088 52.8954 71.4399 48.8368 71.4399 44.685C71.4401 41.9283 70.8972 39.1985 69.8423 36.6516C68.7874 34.1046 67.2412 31.7904 65.2919 29.8411C63.3425 27.8918 61.0284 26.3455 58.4814 25.2906C55.9345 24.2357 53.2047 23.6929 50.448 23.693V23.693ZM50.448 49.007C49.5929 49.0072 48.7569 48.7538 48.0458 48.2789C47.3347 47.8039 46.7805 47.1288 46.4532 46.3388C46.1259 45.5488 46.0402 44.6795 46.2069 43.8409C46.3737 43.0022 46.7855 42.2318 47.3901 41.6272C47.9948 41.0225 48.7651 40.6108 49.6038 40.444C50.4425 40.2772 51.3118 40.3629 52.1017 40.6903C52.8917 41.0176 53.5668 41.5718 54.0418 42.2829C54.5167 42.994 54.7701 43.8299 54.7699 44.685C54.7699 45.8313 54.3146 46.9306 53.5041 47.7411C52.6935 48.5517 51.5942 49.007 50.448 49.007" />
</svg>