<svg viewBox="0 0 51 16" fill="none" xmlns="http://www.w3.org/2000/svg"><path fill-rule="evenodd" clip-rule="evenodd" d="M0 15.107h15.107V0H0v15.107z" fill="#E50019"/><path fill-rule="evenodd" clip-rule="evenodd" d="M3.133 1.904a1.228 1.228 0 10-.002 2.456 1.228 1.228 0 00.002-2.456zm0 1.9a.674.674 0 110-1.348.674.674 0 010 1.348zM7.54 1.904a1.228 1.228 0 10.002 2.456 1.228 1.228 0 00-.002-2.456zm0 1.9a.674.674 0 11.002-1.348.674.674 0 01-.002 1.348zM11.936 1.904a1.228 1.228 0 100 2.455 1.228 1.228 0 000-2.455zm0 1.9a.674.674 0 110-1.347.674.674 0 010 1.347zM3.133 6.325a1.228 1.228 0 10-.002 2.456 1.228 1.228 0 00.002-2.456zm0 1.9a.673.673 0 11.002-1.346.673.673 0 01-.002 1.346zM7.54 6.325a1.228 1.228 0 10.002 2.456 1.228 1.228 0 00-.002-2.456zm0 1.9a.673.673 0 11.004-1.346.673.673 0 01-.004 1.346zM11.936 6.325a1.228 1.228 0 100 2.455 1.228 1.228 0 000-2.455zm0 1.9a.673.673 0 11.002-1.345.673.673 0 01-.002 1.345zM8.071 10.794h-.5v2.321h.5v-2.321zM6.484 10.777v.226a1.17 1.17 0 100 1.888v.209h.5v-2.323h-.5zm-.669 1.777a.63.63 0 11-.002-1.26.63.63 0 01.002 1.26zM9.948 11.521a.408.408 0 00-.444-.329c-.132 0-.421.046-.421.213 0 .252.436.269.544.278.7.059.9.359.9.712a.715.715 0 01-.328.593c-.22.113-.466.168-.713.162a.915.915 0 01-.987-.793h.519a.456.456 0 00.464.358c.29 0 .493-.119.493-.26 0-.218-.212-.265-.514-.3a1.527 1.527 0 01-.637-.183.592.592 0 01-.276-.479c0-.407.325-.726.966-.729a.848.848 0 01.952.753h-.522l.004.004zM3.742 9.982v1.021a1.171 1.171 0 100 1.888v.209h.5V9.982h-.5zm-.658 2.572a.63.63 0 110-1.261.63.63 0 010 1.261zM11.984 10.771a1.177 1.177 0 10.002 2.353 1.177 1.177 0 00-.002-2.353zm0 1.82a.645.645 0 11.002-1.29.645.645 0 01-.002 1.29z" fill="#fff"/><path fill-rule="evenodd" clip-rule="evenodd" d="M18.229 4.055v3.72a3.448 3.448 0 003.443 3.444h2.966V9.63h-2.966a1.856 1.856 0 01-1.855-1.855V5.644h4.821V4.055h-6.409zM29.718 7.552a3.572 3.572 0 107.145-.002 3.572 3.572 0 00-7.145.002zm1.614 0a1.959 1.959 0 113.917 0 1.959 1.959 0 01-3.917 0zM37.667 3.959v7.218h1.6V3.958l-1.6.001zM44.478 6.028a1.386 1.386 0 012.215.005l2.473 2.925 1.218-1.024-2.475-2.928a2.971 2.971 0 00-4.637-.009l-2.5 2.933 1.212 1.031 2.5-2.933h-.006zm1.858 1.887h-1.588v1.939h-3.576v1.323h9.137V9.854h-3.973V7.915zM25.727 3.959h1.6v1.658h1.377v1.608h-1.381v3.954h-1.6v-7.22h.004z" fill="#E5001B"/></svg>