<svg fill="none" xmlns="http://www.w3.org/2000/svg" viewBox="0 0 33 33"><path fill-rule="evenodd" clip-rule="evenodd" d="M0 32.731h32.733V0H0v32.731z" fill="#E50019"/><path fill-rule="evenodd" clip-rule="evenodd" d="M6.787 4.126a2.66 2.66 0 10.004 5.32 2.66 2.66 0 00-.004-5.32zm0 4.116a1.458 1.458 0 11.008-2.92 1.458 1.458 0 01-.008 2.922v-.002zM16.338 4.126a2.66 2.66 0 10.004 5.315 2.66 2.66 0 00-.004-5.313v-.002zm0 4.116a1.458 1.458 0 11.006-2.92 1.458 1.458 0 01-.006 2.922v-.002zM25.86 4.126a2.66 2.66 0 100 5.32 2.66 2.66 0 000-5.32zm0 4.116a1.458 1.458 0 11.01-2.916 1.458 1.458 0 01-.01 2.916zM6.787 13.704a2.66 2.66 0 10.004 5.32 2.66 2.66 0 00-.004-5.32zm0 4.118a1.46 1.46 0 11.006-2.918 1.46 1.46 0 01-.006 2.918zM16.338 13.704a2.66 2.66 0 10.004 5.32 2.66 2.66 0 00-.004-5.32zm0 4.118a1.459 1.459 0 11.004-2.918 1.459 1.459 0 01-.004 2.918zM25.86 13.704a2.66 2.66 0 100 5.32 2.66 2.66 0 000-5.32zm0 4.118a1.46 1.46 0 11.004-2.918 1.46 1.46 0 01-.004 2.918zM17.488 23.388h-1.093v5.03h1.093v-5.03zM14.051 23.351v.489a2.538 2.538 0 100 4.089v.452h1.091v-5.03h-1.09zm-1.449 3.848a1.364 1.364 0 110-2.728 1.364 1.364 0 010 2.728zM21.554 24.96a.885.885 0 00-.962-.712c-.285 0-.912.1-.912.462 0 .547.946.582 1.18.6 1.52.128 1.959.778 1.959 1.542a1.549 1.549 0 01-.713 1.286 3.178 3.178 0 01-1.546.35 1.984 1.984 0 01-2.14-1.721h1.124a.99.99 0 001.008.779c.628 0 1.064-.26 1.064-.565 0-.471-.458-.571-1.113-.646a3.294 3.294 0 01-1.38-.4 1.278 1.278 0 01-.6-1.035c0-.884.7-1.575 2.093-1.581a1.841 1.841 0 012.065 1.631l-1.132.006.005.004zM8.108 21.626v2.214a2.538 2.538 0 100 4.089v.452h1.091v-6.755H8.108zm-1.423 5.573a1.364 1.364 0 11.002-2.729 1.364 1.364 0 01-.002 2.729zM25.975 23.335a2.55 2.55 0 102.55 2.553 2.552 2.552 0 00-2.55-2.549v-.004zm0 3.945a1.4 1.4 0 110-2.8 1.4 1.4 0 010 2.8z" fill="#fff"/></svg>